<svg width="126" height="44" viewBox="0 0 126 44" fill="none" xmlns="http://www.w3.org/2000/svg">
<path d="M1.64 44C1.10667 44 0.84 43.7333 0.84 43.2V9.6C0.84 9.06667 1.10667 8.8 1.64 8.8H6.504C6.90933 8.8 7.26133 8.98133 7.56 9.344L10.696 12.96L14.184 9.184C14.4187 8.928 14.7173 8.8 15.08 8.8H18.536C19.0693 8.8 19.336 9.06667 19.336 9.6V16.48C19.336 16.8213 19.3147 17.056 19.272 17.184C19.2293 17.2907 19.112 17.408 18.92 17.536L10.984 23.392V43.2C10.984 43.7333 10.7173 44 10.184 44H1.64ZM23.7285 44C23.1952 44 22.9285 43.7333 22.9285 43.2V13.536C22.9285 13.2587 23.0352 12.9387 23.2485 12.576L30.8325 1.824C31.0672 1.504 31.4085 1.344 31.8565 1.344H42.4485C42.9178 1.344 43.2592 1.504 43.4725 1.824L51.0885 12.576C51.3018 12.8747 51.4085 13.1947 51.4085 13.536V43.2C51.4085 43.7333 51.1418 44 50.6085 44H41.5525C41.0192 44 40.7525 43.7333 40.7525 43.2V29.6H33.6165V43.2C33.6165 43.7333 33.3498 44 32.8165 44H23.7285ZM37.1685 22.72C39.1312 22.72 40.4538 22.2933 41.1365 21.44C41.8405 20.5653 42.1925 18.912 42.1925 16.48C42.1925 14.048 41.8405 12.4053 41.1365 11.552C40.4538 10.6773 39.1312 10.24 37.1685 10.24C35.2272 10.24 33.9045 10.6773 33.2005 11.552C32.5178 12.4053 32.1765 14.048 32.1765 16.48C32.1765 18.912 32.5178 20.5653 33.2005 21.44C33.9045 22.2933 35.2272 22.72 37.1685 22.72ZM59.7025 44C59.1692 44 58.9025 43.7333 58.9025 43.2V9.6C58.9025 9.06667 59.1692 8.8 59.7025 8.8H68.2145C68.7478 8.8 69.0145 9.06667 69.0145 9.6V43.2C69.0145 43.7333 68.7478 44 68.2145 44H59.7025ZM59.5425 6.144C59.1158 6.144 58.9025 5.93066 58.9025 5.504V1.44C58.9025 1.01333 59.1158 0.799999 59.5425 0.799999H68.4385C68.8225 0.799999 69.0145 1.01333 69.0145 1.44V5.504C69.0145 5.93066 68.8225 6.144 68.4385 6.144H59.5425ZM76.305 44C75.7717 44 75.505 43.7333 75.505 43.2V37.184C75.505 36.9067 75.5157 36.6827 75.537 36.512C75.5797 36.3413 75.7077 36.2027 75.921 36.096L84.305 32.256V26.56L76.049 21.44C75.6863 21.2267 75.505 20.9067 75.505 20.48V8.736C75.505 8.39467 75.5263 8.14933 75.569 8C75.6117 7.82933 75.7717 7.648 76.049 7.456L84.465 1.76C84.6783 1.632 84.8703 1.536 85.041 1.472C85.233 1.38666 85.4677 1.344 85.745 1.344H94.385C94.9183 1.344 95.185 1.61066 95.185 2.144V7.584C95.185 8.05333 95.025 8.37333 94.705 8.544L86.321 12V17.92L94.705 22.72C95.025 22.8693 95.185 23.2107 95.185 23.744V37.664C95.185 37.8347 95.153 38.016 95.089 38.208C95.0463 38.4 94.9397 38.5387 94.769 38.624L84.721 43.616C84.593 43.68 84.433 43.7653 84.241 43.872C84.0703 43.9573 83.8997 44 83.729 44H76.305ZM102.703 44C102.169 44 101.903 43.7333 101.903 43.2V2.144C101.903 1.61066 102.169 1.344 102.703 1.344H125.007C125.54 1.344 125.807 1.61066 125.807 2.144V9.056C125.807 9.58933 125.54 9.856 125.007 9.856H112.559V18.944H123.919C124.452 18.944 124.719 19.2107 124.719 19.744V25.6C124.719 26.1333 124.452 26.4 123.919 26.4H112.559V35.456H125.007C125.54 35.456 125.807 35.7227 125.807 36.256V43.2C125.807 43.7333 125.54 44 125.007 44H102.703Z" fill="#1C4886"/>
</svg>
